<svg xmlns="http://www.w3.org/2000/svg" width="48" height="48" fill="none" viewBox="0 0 48 48">
  <circle cx="24" cy="24" r="24" fill="#A8C4B0"/>
  <circle cx="24" cy="24" r="21" fill="#B8D4C0"/>
  <rect x="9" y="9" width="30" height="24" rx="2" stroke="#F5F0E8" stroke-width="1.5" fill="none"/>
  <line x1="24" y1="9" x2="24" y2="33" stroke="#F5F0E8" stroke-width="1"/>
  <line x1="9" y1="21" x2="39" y2="21" stroke="#F5F0E8" stroke-width="1"/>
  <rect x="10" y="10" width="13" height="10" fill="#E8F0EB"/>
  <rect x="25" y="10" width="13" height="10" fill="#D8E8E0"/>
  <path fill="#3D5A3D" d="M15,22 L17,22 L16.5,30 L15.5,30 Z"/>
  <path fill="#A8C4B0" d="M16,16 C18,16 19,17.5 19,19 L19,22 L13,22 L13,19 C13,17.5 14,16 16,16 Z"/>
  <path fill="#8BB3A0" d="M16,13.5 C17.5,13.5 18.5,14.5 18.5,16 L18.5,17.5 L13.5,17.5 L13.5,16 C13.5,14.5 14.5,13.5 16,13.5 Z"/>
  <circle cx="15.5" cy="23" r="1.5" fill="#C17C5E"/>
  <path fill="#2C4A2B" d="M14,24 L17,24 L17,28 L15.5,29 L14,28 Z"/>
  <rect x="28" y="24" width="2.5" height="5" fill="#6B7A6B" rx="0.5"/>
  <rect x="31" y="22" width="2.5" height="7" fill="#7A8A7A" rx="0.5"/>
  <rect x="28.5" y="25.5" width="1.5" height="1.5" fill="#F5F0E8"/>
  <rect x="31.5" y="23.5" width="1.5" height="1.5" fill="#F5F0E8"/>
</svg>